<?xml version="1.0" encoding="UTF-8"?>
<svg version="1.1" xmlns="http://www.w3.org/2000/svg" width="225" height="225">
<path d="M0 0 C74.25 0 148.5 0 225 0 C225 74.25 225 148.5 225 225 C150.75 225 76.5 225 0 225 C0 150.75 0 76.5 0 0 Z " fill="#FE7069" transform="translate(0,0)"/>
<path d="M0 0 C0.66 0 1.32 0 2 0 C17.96881491 40.42623031 17.96881491 40.42623031 23.91064453 55.59448242 C26.13961218 61.28122898 28.38043428 66.9629302 30.6428833 72.63642883 C31.86225819 75.69528203 33.07790927 78.75560958 34.293396 81.81600952 C34.88532364 83.3032636 35.47908903 84.78978768 36.07476807 86.27554321 C36.90210797 88.33944712 37.72316816 90.4057484 38.54296875 92.47265625 C39.01758545 93.66125244 39.49220215 94.84984863 39.98120117 96.07446289 C41 99 41 99 41 102 C32.8520128 102.1204136 24.76817943 101.71071889 16.64086914 101.20043945 C14.43853898 101.06256504 12.23592028 100.93035922 10.03320312 100.79882812 C3.7195196 100.41437356 -2.56518467 99.97893872 -8.84643555 99.21655273 C-14.42366339 98.65573184 -20.04895997 98.58986186 -25.6484375 98.39453125 C-26.62296875 98.35714844 -27.5975 98.31976563 -28.6015625 98.28125 C-29.90601318 98.23581055 -29.90601318 98.23581055 -31.23681641 98.18945312 C-32.14866699 98.12693359 -33.06051758 98.06441406 -34 98 C-35.20027832 97.95552734 -36.40055664 97.91105469 -37.63720703 97.86523438 C-41 97 -41 97 -42.84863281 94.3671875 C-43.29561523 93.21476562 -43.74259766 92.06234375 -44.203125 90.875 C-44.45245789 90.25407471 -44.70179077 89.63314941 -44.9586792 88.9934082 C-45.74946529 87.00502514 -46.49955869 85.00390981 -47.25 83 C-47.76828362 81.68258782 -48.28909374 80.36616662 -48.8125 79.05078125 C-51.42188735 72.43701187 -53.83203005 65.77119381 -56 59 C-53.24012022 56.2349129 -50.47338444 53.47728137 -47.6953125 50.73046875 C-42.14174196 45.226277 -36.62697992 39.76050392 -31.5703125 33.7890625 C-29.17052913 31.05498094 -26.55590322 28.54736728 -23.96484375 25.99609375 C-22.07769256 24.07892823 -20.31314625 22.10424678 -18.5625 20.0625 C-15.27736957 16.23734813 -11.74283367 12.72055835 -8.1484375 9.1875 C-6.17316034 7.17630871 -4.35752769 5.10904569 -2.5625 2.9375 C-1.716875 1.968125 -0.87125 0.99875 0 0 Z " fill="#E3E6EC" transform="translate(142,28)"/>
<path d="M0 0 C1.28271484 1.75561523 1.28271484 1.75561523 2.2109375 4.05859375 C2.56559082 4.91130859 2.92024414 5.76402344 3.28564453 6.64257812 C3.64513184 7.56490234 4.00461914 8.48722656 4.375 9.4375 C4.94710205 10.84612305 4.94710205 10.84612305 5.53076172 12.28320312 C6.31637596 14.22678854 7.09315717 16.17396632 7.86132812 18.12451172 C8.93549816 20.83711348 10.04665718 23.53090812 11.171875 26.22265625 C11.82437905 27.81450551 12.47549384 29.40692518 13.125 31 C13.58592041 32.10106079 13.58592041 32.10106079 14.05615234 33.22436523 C15.65097884 37.25288 16.45940223 39.8715484 15 44 C13.04980469 45.36669922 13.04980469 45.36669922 10.421875 46.4296875 C9.42478516 46.84186523 8.42769531 47.25404297 7.40039062 47.67871094 C6.27826172 48.11473633 5.15613281 48.55076172 4 49 C2.77990234 49.48500977 1.55980469 49.97001953 0.30273438 50.46972656 C-3.70346524 52.05150691 -7.7256107 53.59021868 -11.75 55.125 C-13.81573336 55.91533805 -15.88107373 56.70667683 -17.94586182 57.4994812 C-19.80786687 58.21405979 -21.67098783 58.92572866 -23.53417969 59.63720703 C-25.97509584 60.5969981 -28.37072633 61.58824529 -30.77050781 62.64013672 C-35.72720863 64.72728697 -35.72720863 64.72728697 -39 64 C-41.70470708 60.13789588 -43.40592246 55.86319727 -45.13671875 51.50390625 C-45.42102249 50.79274155 -45.70532623 50.08157684 -45.99824524 49.34886169 C-46.59471817 47.85127822 -47.18876719 46.35272729 -47.78051758 44.85327148 C-48.68491486 42.5690293 -49.6048042 40.29142923 -50.52539062 38.01367188 C-51.10512943 36.55246495 -51.68393699 35.09088813 -52.26171875 33.62890625 C-52.53666672 32.95372452 -52.81161469 32.27854279 -53.09489441 31.582901 C-54.65552694 27.57154383 -55.2915233 24.29799329 -55 20 C-46.13104358 15.18857277 -36.77764022 11.4909865 -27.43041992 7.73193359 C-24.67178287 6.61865719 -21.92103038 5.48719975 -19.16992188 4.35546875 C-17.40931005 3.64470305 -15.64825744 2.93502799 -13.88671875 2.2265625 C-13.06894455 1.88710602 -12.25117035 1.54764954 -11.40861511 1.19790649 C-3.88520376 -1.78206568 -3.88520376 -1.78206568 0 0 Z " fill="#6C7678" transform="translate(86,87)"/>
<path d="M0 0 C0.33 0 0.66 0 1 0 C1.15855469 1.26972656 1.31710938 2.53945312 1.48046875 3.84765625 C4.25974598 24.85940235 10.85508611 44.12326733 24 61 C24.7115625 61.92554688 25.423125 62.85109375 26.15625 63.8046875 C44.9211774 87.51790056 72.60087104 99.90012147 102 104 C102 104.33 102 104.66 102 105 C68.34 105 34.68 105 0 105 C0 70.35 0 35.7 0 0 Z " fill="#FFFDFD" transform="translate(0,120)"/>
<path d="M0 0 C0.33 0 0.66 0 1 0 C1 33.33 1 66.66 1 101 C-32.66 101 -66.32 101 -101 101 C-101 100.67 -101 100.34 -101 100 C-99.71609375 99.8040625 -98.4321875 99.608125 -97.109375 99.40625 C-72.94774025 95.43614732 -51.47122293 86.41356212 -34 69 C-33.15179688 68.15695313 -32.30359375 67.31390625 -31.4296875 66.4453125 C-30.62789063 65.63835937 -29.82609375 64.83140625 -29 64 C-28.04867187 63.04480469 -28.04867187 63.04480469 -27.078125 62.0703125 C-11.12719724 45.09688937 -3.57217967 22.60813713 0 0 Z " fill="#FFFDFD" transform="translate(224,124)"/>
<path d="M0 0 C33.66 0 67.32 0 102 0 C102 33.33 102 66.66 102 101 C101.67 101 101.34 101 101 101 C100.78085938 99.741875 100.56171875 98.48375 100.3359375 97.1875 C96.21871382 74.54388191 88.26992612 55.43048928 73 38 C72.35933594 37.16597656 71.71867187 36.33195312 71.05859375 35.47265625 C67.31268632 30.97330255 62.60541722 27.57924372 58 24 C57.21496094 23.38769531 56.42992187 22.77539062 55.62109375 22.14453125 C39.1018028 9.92975943 20.1350693 3.80795184 0 1 C0 0.67 0 0.34 0 0 Z " fill="#FFFEFD" transform="translate(123,0)"/>
<path d="M0 0 C33 0 66 0 100 0 C100 0.33 100 0.66 100 1 C98.8140625 1.21914063 97.628125 1.43828125 96.40625 1.6640625 C74.45718178 5.88775782 54.67753517 13.67536223 38 29 C37.51047852 29.44714355 37.02095703 29.89428711 36.51660156 30.35498047 C16.05193262 49.2559255 5.06264291 73.71753623 1 101 C0.67 101 0.34 101 0 101 C0 67.67 0 34.34 0 0 Z " fill="#FFFEFD" transform="translate(0,0)"/>
<path d="M0 0 C0.94531398 5.06326772 1.8870808 10.12717954 2.82592773 15.19165039 C3.14402536 16.90503625 3.46299908 18.61825975 3.78295898 20.33129883 C6.05970927 32.52535824 8.12635236 44.73746699 10 57 C5.18463202 58.66877065 0.46226417 60.26747276 -4.5625 61.1875 C-5.83287109 61.42533203 -5.83287109 61.42533203 -7.12890625 61.66796875 C-7.74636719 61.77753906 -8.36382812 61.88710937 -9 62 C-15.98128224 45.1080887 -22.69949607 28.1593717 -29 11 C-22.55338869 8.00733096 -16.10609955 5.14845349 -9.4375 2.6875 C-8.74076172 2.42388672 -8.04402344 2.16027344 -7.32617188 1.88867188 C-2.25864448 0 -2.25864448 0 0 0 Z " fill="#E3E5EB" transform="translate(82,139)"/>
<path d="M0 0 C1.97119141 0.07299805 1.97119141 0.07299805 4 1 C5.32177734 3.09301758 5.32177734 3.09301758 6.4609375 5.83203125 C6.8847168 6.83572754 7.30849609 7.83942383 7.74511719 8.87353516 C8.15922852 9.90526855 8.57333984 10.93700195 9 12 C9.3702832 12.90927246 9.74056641 13.81854492 10.12207031 14.75537109 C11.31182191 17.72449036 12.47070057 20.70442279 13.625 23.6875 C14.57993191 26.13703366 15.53560159 28.58626896 16.4921875 31.03515625 C16.75519653 31.70919495 17.01820557 32.38323364 17.28918457 33.07769775 C21.80734291 44.64406529 26.40136729 56.18073396 30.9788208 67.72372437 C32.92926379 72.64272798 34.87713581 77.56270171 36.81835938 82.48535156 C38.24148075 86.09277305 39.68115978 89.69284763 41.13476562 93.28808594 C41.7826536 94.90816253 42.43044565 96.52827749 43.078125 98.1484375 C43.37644226 98.87519684 43.67475952 99.60195618 43.9821167 100.35073853 C45.44097649 104.02607587 46.36074905 107.03079583 46 111 C43.6875 111.6875 43.6875 111.6875 41 112 C37.7687973 109.65579412 36.79843476 106.44131824 35.41796875 102.80078125 C35.17116867 102.15790665 34.92436859 101.51503204 34.67008972 100.85267639 C34.12537431 99.43140576 33.5842941 98.00873805 33.04632568 96.5848999 C31.85845751 93.44187382 30.65275512 90.30578706 29.44787598 87.16925049 C28.77411734 85.41529498 28.10121598 83.66100998 27.42907715 81.90643311 C22.97446074 70.29212578 18.41217453 58.71983146 13.8578186 47.14437866 C12.39250633 43.42005929 10.92896065 39.69504799 9.46557617 35.9699707 C8.54741616 33.63360552 7.62920548 31.29726025 6.7109375 28.9609375 C6.08665108 27.37213524 6.08665108 27.37213524 5.44975281 25.75123596 C5.05431778 24.74584274 4.65888275 23.74044952 4.25146484 22.70458984 C3.87656921 21.74639343 3.50167358 20.78819702 3.11541748 19.80096436 C2.37015274 17.92950365 1.60438607 16.06608132 0.81866455 14.21124268 C0.45134216 13.33796326 0.08401978 12.46468384 -0.29443359 11.56494141 C-0.62317474 10.80275299 -0.95191589 10.04056458 -1.2906189 9.25527954 C-2.10091403 6.67917195 -2.26577847 4.68499643 -2 2 C-1.34 1.34 -0.68 0.68 0 0 Z " fill="#6D7678" transform="translate(145,21)"/>
<path d="M0 0 C2.44839588 3.67259383 4 6.54648201 4 11 C-4.1479872 11.1204136 -12.23182057 10.71071889 -20.35913086 10.20043945 C-22.56146102 10.06256504 -24.76407972 9.93035922 -26.96679688 9.79882812 C-33.2804804 9.41437356 -39.56518467 8.97893872 -45.84643555 8.21655273 C-51.42366339 7.65573184 -57.04895997 7.58986186 -62.6484375 7.39453125 C-67.83798679 7.19546124 -72.87678538 6.86104447 -78 6 C-78.66 4.35 -79.32 2.7 -80 1 C-40.4 1.495 -40.4 1.495 0 2 C0 1.34 0 0.68 0 0 Z " fill="#C7C8D2" transform="translate(179,119)"/>
<path d="M0 0 C4.34847885 3.77009046 5.72038031 9.20338613 7.75 14.4375 C8.17410156 15.48744141 8.59820312 16.53738281 9.03515625 17.61914062 C9.43089844 18.63041016 9.82664062 19.64167969 10.234375 20.68359375 C10.59756836 21.60712646 10.96076172 22.53065918 11.33496094 23.48217773 C12.03778544 26.14305478 11.93347642 27.44936902 11 30 C9.10489301 30.08160748 7.20875496 30.13946459 5.3125 30.1875 C3.72888672 30.23970703 3.72888672 30.23970703 2.11328125 30.29296875 C-1.42098267 29.96038432 -3.17263715 29.10579629 -6 27 C-9.82389454 22.03927194 -10.74711588 17.91454775 -10.5234375 11.66015625 C-9.67504269 7.34853787 -7.40364148 4.67763538 -4 2 C-2.6867989 1.29450366 -1.35719524 0.61663871 0 0 Z " fill="#E3E5EB" transform="translate(31,115)"/>
<path d="M0 0 C0 1.32 0 2.64 0 4 C-3.10051447 4.8678228 -6.20586665 5.71686767 -9.3125 6.5625 C-10.63411133 6.9327832 -10.63411133 6.9327832 -11.98242188 7.31054688 C-12.82998047 7.53935547 -13.67753906 7.76816406 -14.55078125 8.00390625 C-15.33106689 8.21861572 -16.11135254 8.4333252 -16.9152832 8.65454102 C-19 9 -19 9 -22 8 C-22 6.68 -22 5.36 -22 4 C-19.27464312 3.13161176 -16.54583627 2.28007381 -13.8125 1.4375 C-13.04357422 1.19064453 -12.27464844 0.94378906 -11.48242188 0.68945312 C-7.31284385 -0.58110499 -4.29082831 -1.43600867 0 0 Z " fill="#6D7779" transform="translate(94,197)"/>
<path d="M0 0 C0 1.32 0 2.64 0 4 C-4.10078931 5.6750644 -8.20615636 7.33860345 -12.3125 9 C-14.06336914 9.71542969 -14.06336914 9.71542969 -15.84960938 10.4453125 C-16.96787109 10.89648438 -18.08613281 11.34765625 -19.23828125 11.8125 C-20.7857605 12.44091797 -20.7857605 12.44091797 -22.36450195 13.08203125 C-25 14 -25 14 -28 14 C-28.33 13.01 -28.66 12.02 -29 11 C-22.58793803 7.92981779 -16.08772043 5.19183617 -9.4375 2.6875 C-8.73496094 2.42114746 -8.03242187 2.15479492 -7.30859375 1.88037109 C-2.25146965 0 -2.25146965 0 0 0 Z " fill="#C5C7D1" transform="translate(82,139)"/>
<path d="M0 0 C0 0.99 0 1.98 0 3 C-4.64219349 4.85794168 -9.28698692 6.70916643 -13.93432617 8.55419922 C-15.51513888 9.18288913 -17.0952235 9.813413 -18.67456055 10.44580078 C-20.94391287 11.35411208 -23.21579609 12.2558103 -25.48828125 13.15625 C-26.54780754 13.5827887 -26.54780754 13.5827887 -27.6287384 14.01794434 C-30.57331497 15.17832702 -32.80440229 16 -36 16 C-35 13 -35 13 -32.71850586 11.7890625 C-31.72729736 11.40492187 -30.73608887 11.02078125 -29.71484375 10.625 C-28.08192383 9.98304687 -28.08192383 9.98304687 -26.41601562 9.328125 C-24.69415039 8.67070313 -24.69415039 8.67070313 -22.9375 8 C-21.81666016 7.56171875 -20.69582031 7.1234375 -19.54101562 6.671875 C-16.36587335 5.43388647 -13.18414866 4.21459906 -10 3 C-9.16742676 2.67644531 -8.33485352 2.35289063 -7.47705078 2.01953125 C-2.23266945 0 -2.23266945 0 0 0 Z " fill="#D8DCE2" transform="translate(74,92)"/>
<path d="M0 0 C8.415 1.485 8.415 1.485 17 3 C17.33 4.32 17.66 5.64 18 7 C17.67 7.33 17.34 7.66 17 8 C10.82273953 7.84346124 4.93129014 6.6475806 -1 5 C-0.67 3.35 -0.34 1.7 0 0 Z " fill="#FFDB57" transform="translate(186,93)"/>
<path d="M0 0 C0 1.32 0 2.64 0 4 C-2.43313372 5.03251062 -4.87056892 6.05119521 -7.3125 7.0625 C-8.00279297 7.35705078 -8.69308594 7.65160156 -9.40429688 7.95507812 C-14.66015625 10.11328125 -14.66015625 10.11328125 -18 9 C-18 7.68 -18 6.36 -18 5 C-15.56686628 3.96748938 -13.12943108 2.94880479 -10.6875 1.9375 C-9.65206055 1.49567383 -9.65206055 1.49567383 -8.59570312 1.04492188 C-3.33984375 -1.11328125 -3.33984375 -1.11328125 0 0 Z " fill="#FFDD57" transform="translate(194,66)"/>
<path d="M0 0 C1.32 0.33 2.64 0.66 4 1 C3.46968911 5.3928738 1.93027533 7.87767004 -0.8125 11.3125 C-1.49957031 12.19550781 -2.18664062 13.07851563 -2.89453125 13.98828125 C-5 16 -5 16 -9 16 C-8.47515308 11.44299575 -6.68492697 8.807126 -3.9375 5.1875 C-3.20402344 4.21167969 -2.47054687 3.23585937 -1.71484375 2.23046875 C-1.14894531 1.49441406 -0.58304688 0.75835937 0 0 Z " fill="#FFDF56" transform="translate(176,36)"/>
</svg>
